<svg id="visual" viewBox="0 0 960 540" width="960" height="540" xmlns="http://www.w3.org/2000/svg" xmlns:xlink="http://www.w3.org/1999/xlink" version="1.1"><rect x="0" y="0" width="960" height="540" fill="#001220"></rect><defs><linearGradient id="grad1_0" x1="43.8%" y1="0%" x2="100%" y2="100%"><stop offset="14.444444444444446%" stop-color="#001220" stop-opacity="1"></stop><stop offset="85.55555555555554%" stop-color="#001220" stop-opacity="1"></stop></linearGradient></defs><defs><linearGradient id="grad2_0" x1="0%" y1="0%" x2="56.3%" y2="100%"><stop offset="14.444444444444446%" stop-color="#001220" stop-opacity="1"></stop><stop offset="85.55555555555554%" stop-color="#001220" stop-opacity="1"></stop></linearGradient></defs><g transform="translate(960, 0)"><path d="M0 297C-43.7 298.1 -87.4 299.1 -113.7 274.4C-139.9 249.7 -148.8 199.1 -167.6 167.6C-186.4 136 -215.1 123.5 -238.4 98.7C-261.6 74 -279.3 37 -297 0L0 0Z" fill="#FBAE3C"></path></g><g transform="translate(0, 540)"><path d="M0 -297C44.2 -298.3 88.4 -299.5 113.7 -274.4C138.9 -249.2 145.3 -197.7 167.6 -167.6C189.8 -137.5 228 -128.8 252.2 -104.5C276.4 -80.1 286.7 -40.1 297 0L0 0Z" fill="#FBAE3C"></path></g></svg>